<?xml version="1.0" standalone="no"?>
<!DOCTYPE svg PUBLIC "-//W3C//DTD SVG 20010904//EN"
 "http://www.w3.org/TR/2001/REC-SVG-20010904/DTD/svg10.dtd">
<svg version="1.0" xmlns="http://www.w3.org/2000/svg"
 width="155.000000pt" height="155.000000pt" viewBox="0 0 155.000000 155.000000"
 preserveAspectRatio="xMidYMid meet">
<metadata>
Created by potrace 1.16, written by Peter Selinger 2001-2019
</metadata>
<g transform="translate(0.000000,155.000000) scale(0.100000,-0.100000)"
fill="#000000" stroke="none">
<path d="M635 1535 c-196 -36 -382 -155 -487 -312 -47 -70 -88 -143 -92 -165
-2 -7 -8 -24 -13 -38 -23 -56 -37 -151 -37 -255 0 -93 5 -123 28 -195 24 -76
72 -187 86 -200 3 -3 18 -25 35 -50 34 -53 96 -120 110 -120 6 0 24 -15 42
-33 34 -35 140 -92 236 -127 51 -18 119 -25 247 -25 102 0 139 5 200 24 97 30
176 70 225 115 22 19 44 36 49 36 13 0 126 123 126 138 0 6 4 12 10 12 13 0
97 176 109 230 5 25 13 59 16 75 23 105 9 271 -31 378 -52 137 -102 217 -191
305 -176 173 -428 251 -668 207z m204 -636 c97 -56 177 -103 179 -104 3 -2
-365 -215 -373 -215 -3 0 -5 94 -5 210 0 152 3 210 12 210 6 0 90 -46 187
-101z"/>
</g>
</svg>
