<?xml version="1.0" standalone="no"?>
<!DOCTYPE svg PUBLIC "-//W3C//DTD SVG 20010904//EN"
 "http://www.w3.org/TR/2001/REC-SVG-20010904/DTD/svg10.dtd">
<svg version="1.0" xmlns="http://www.w3.org/2000/svg"
 width="180.000000pt" height="180.000000pt" viewBox="0 0 180.000000 180.000000"
 preserveAspectRatio="xMidYMid meet">
<metadata>
Created by potrace 1.16, written by Peter Selinger 2001-2019
</metadata>
<g transform="translate(0.000000,180.000000) scale(0.100000,-0.100000)"
fill="#000000" stroke="none">
<path d="M750 1793 c-65 -11 -180 -46 -180 -56 0 -6 -3 -8 -6 -4 -7 7 -127
-51 -132 -64 -2 -5 -10 -9 -18 -9 -8 0 -14 -4 -14 -10 0 -5 -7 -10 -15 -10 -8
0 -15 -4 -15 -10 0 -5 -5 -10 -11 -10 -12 0 -59 -41 -102 -89 -12 -13 -34 -36
-50 -50 -15 -14 -27 -31 -27 -38 0 -7 -4 -13 -10 -13 -5 0 -10 -7 -10 -15 0
-8 -4 -15 -10 -15 -5 0 -10 -7 -10 -15 0 -8 -4 -15 -8 -15 -10 0 -58 -100 -55
-112 2 -4 -1 -8 -6 -8 -8 0 -24 -41 -25 -65 -1 -5 -4 -12 -8 -15 -16 -12 -37
-165 -37 -270 0 -112 22 -262 39 -268 5 -2 6 -10 3 -18 -3 -8 0 -14 6 -14 6 0
8 -6 5 -14 -3 -7 2 -20 10 -29 8 -8 12 -17 9 -21 -4 -3 -1 -6 5 -6 7 0 11 -3
10 -7 -4 -15 13 -53 23 -53 6 0 7 -4 4 -10 -3 -5 -1 -10 6 -10 7 0 10 -3 6 -6
-10 -11 67 -115 134 -183 78 -78 156 -132 263 -181 136 -64 189 -75 376 -75
142 0 176 3 243 23 257 74 463 251 577 496 64 136 75 189 75 376 0 142 -3 176
-23 243 -23 81 -76 197 -96 209 -6 4 -7 8 -3 8 10 0 -47 85 -84 125 -80 87
-157 155 -175 155 -8 0 -14 5 -14 10 0 6 -6 10 -14 10 -8 0 -16 4 -18 9 -4 14
-149 81 -160 75 -4 -3 -8 -1 -8 5 0 8 -36 20 -80 26 -8 1 -22 5 -30 8 -8 3
-22 6 -30 7 -37 4 -288 7 -310 3z m349 -63 c46 -11 122 -38 168 -60 46 -21 86
-40 90 -42 23 -10 226 -198 215 -198 -4 -1 3 -9 15 -19 12 -10 19 -21 16 -25
-3 -3 2 -8 11 -12 9 -3 13 -10 11 -15 -3 -4 3 -17 14 -28 11 -11 17 -22 13
-25 -3 -3 0 -6 7 -6 7 0 9 -4 6 -10 -3 -5 -1 -10 5 -10 6 0 8 -4 5 -10 -3 -5
-1 -10 6 -10 7 0 10 -3 6 -6 -3 -3 2 -27 12 -53 54 -136 68 -352 32 -496 -11
-44 -27 -96 -35 -116 -8 -20 -12 -39 -9 -43 4 -3 1 -6 -5 -6 -10 0 -28 -38
-24 -52 1 -5 -3 -8 -8 -8 -6 0 -10 -7 -10 -15 0 -8 -4 -15 -10 -15 -5 0 -10
-7 -10 -15 0 -8 -4 -15 -10 -15 -5 0 -10 -7 -10 -15 0 -8 -5 -15 -10 -15 -6 0
-13 -7 -17 -16 -5 -14 -40 -50 -154 -156 -11 -10 -24 -18 -29 -18 -5 0 -10 -4
-10 -10 0 -5 -7 -10 -15 -10 -8 0 -15 -4 -15 -10 0 -5 -3 -9 -7 -8 -5 1 -33
-11 -63 -27 -30 -16 -58 -28 -62 -27 -5 1 -8 -2 -8 -6 0 -5 -6 -9 -12 -9 -7
-1 -51 -11 -98 -22 -66 -17 -111 -22 -200 -20 -128 2 -158 4 -180 12 -8 3 -35
11 -60 18 -58 14 -199 78 -224 101 -11 10 -25 18 -32 18 -6 0 -14 7 -18 15 -3
8 -12 15 -20 15 -8 0 -19 6 -23 14 -4 8 -37 45 -73 83 -66 70 -89 104 -138
203 -15 30 -31 58 -35 61 -5 3 -8 8 -6 10 1 2 -8 45 -20 95 -28 122 -29 286
-1 402 74 309 319 556 628 632 109 26 289 26 401 0z"/>
<path d="M750 900 c0 -143 2 -260 5 -260 11 0 445 254 445 261 0 3 -21 17 -47
30 -27 13 -50 27 -53 30 -9 10 -55 33 -62 31 -5 -1 -8 2 -8 6 0 4 -26 21 -57
37 -32 17 -63 36 -71 42 -7 7 -24 16 -38 19 -13 3 -24 9 -24 13 0 9 -51 35
-62 33 -5 -1 -8 3 -8 8 0 6 -4 10 -10 10 -6 0 -10 -93 -10 -260z m233 85 c75
-44 137 -85 137 -93 0 -7 -4 -10 -10 -7 -5 3 -10 1 -10 -4 0 -6 -6 -11 -14
-11 -8 0 -21 -7 -30 -15 -8 -9 -19 -16 -23 -17 -18 -2 -53 -22 -53 -30 0 -4
-3 -7 -7 -6 -12 2 -63 -24 -63 -33 0 -4 -11 -10 -25 -13 -14 -4 -25 -11 -25
-17 0 -6 -4 -7 -10 -4 -5 3 -10 1 -10 -4 0 -6 -6 -11 -14 -11 -8 0 -22 -7 -30
-16 -15 -14 -16 3 -16 191 l0 207 33 -19 c17 -10 94 -55 170 -98z"/>
</g>
</svg>
