<svg width="129" height="32" viewBox="0 0 129 32" fill="none" xmlns="http://www.w3.org/2000/svg">
<g clip-path="url(#clip0_26_583)">
<path d="M47.0918 22.1207C45.3638 22.1207 44.0138 21.7007 43.0418 20.8607C42.0698 20.0087 41.5538 18.8027 41.4938 17.2427C41.4818 16.8947 41.4758 16.3427 41.4758 15.5867C41.4758 14.8307 41.4818 14.2787 41.4938 13.9307C41.5538 12.4067 42.0758 11.2307 43.0598 10.4027C44.0558 9.57471 45.3998 9.16071 47.0918 9.16071C48.2318 9.16071 49.2218 9.34671 50.0618 9.71871C50.9138 10.0907 51.5618 10.5647 52.0058 11.1407C52.4618 11.7167 52.7018 12.3107 52.7258 12.9227C52.7258 13.0307 52.6838 13.1207 52.5998 13.1927C52.5278 13.2647 52.4378 13.3007 52.3298 13.3007L49.7018 13.3007C49.5818 13.3007 49.4858 13.2827 49.4138 13.2467C49.3418 13.2107 49.2818 13.1447 49.2338 13.0487C49.0778 12.7007 48.8318 12.4007 48.4958 12.1487C48.1598 11.8847 47.6918 11.7527 47.0918 11.7527C45.6638 11.7527 44.9138 12.5087 44.8418 14.0207C44.8298 14.3567 44.8238 14.8787 44.8238 15.5867C44.8238 16.2827 44.8298 16.8047 44.8418 17.1527C44.9138 18.7367 45.6818 19.5287 47.1458 19.5287C47.8538 19.5287 48.4178 19.3487 48.8378 18.9887C49.2698 18.6167 49.4858 18.0527 49.4858 17.2967L49.4858 16.9547L47.7938 16.9547C47.6618 16.9547 47.5538 16.9127 47.4698 16.8287C47.3858 16.7327 47.3438 16.6187 47.3438 16.4867L47.3438 15.1547C47.3438 15.0227 47.3858 14.9147 47.4698 14.8307C47.5538 14.7347 47.6618 14.6867 47.7938 14.6867L52.3298 14.6867C52.4618 14.6867 52.5698 14.7347 52.6538 14.8307C52.7378 14.9147 52.7798 15.0227 52.7798 15.1547L52.7798 17.2067C52.7798 18.2267 52.5458 19.1087 52.0778 19.8527C51.6098 20.5847 50.9438 21.1487 50.0798 21.5447C49.2278 21.9287 48.2318 22.1207 47.0918 22.1207Z" fill="black"/>
<path d="M59.0749 22.1207C57.5869 22.1207 56.4409 21.7667 55.6369 21.0587C54.8329 20.3507 54.3949 19.3547 54.3229 18.0707C54.3109 17.9147 54.3049 17.6447 54.3049 17.2607C54.3049 16.8767 54.3109 16.6067 54.3229 16.4507C54.3949 15.1787 54.8449 14.1887 55.6729 13.4807C56.5009 12.7607 57.6349 12.4007 59.0749 12.4007C60.5269 12.4007 61.6669 12.7607 62.4949 13.4807C63.3229 14.1887 63.7729 15.1787 63.8449 16.4507C63.8569 16.6067 63.8629 16.8767 63.8629 17.2607C63.8629 17.6447 63.8569 17.9147 63.8449 18.0707C63.7729 19.3547 63.3349 20.3507 62.5309 21.0587C61.7269 21.7667 60.5749 22.1207 59.0749 22.1207ZM59.0749 19.9247C59.6029 19.9247 59.9929 19.7687 60.2449 19.4567C60.4969 19.1327 60.6409 18.6407 60.6769 17.9807C60.6889 17.8607 60.6949 17.6207 60.6949 17.2607C60.6949 16.9007 60.6889 16.6607 60.6769 16.5407C60.6409 15.8927 60.4909 15.4067 60.2269 15.0827C59.9749 14.7587 59.5909 14.5967 59.0749 14.5967C58.0789 14.5967 57.5509 15.2447 57.4909 16.5407L57.4729 17.2607L57.4909 17.9807C57.5149 18.6407 57.6529 19.1327 57.9049 19.4567C58.1689 19.7687 58.5589 19.9247 59.0749 19.9247Z" fill="black"/>
<path d="M71.0148 22.1207C69.2988 22.1207 67.9548 21.7067 66.9828 20.8787C66.0228 20.0387 65.5128 18.8267 65.4528 17.2427C65.4408 16.9187 65.4348 16.3907 65.4348 15.6587C65.4348 14.9147 65.4408 14.3747 65.4528 14.0387C65.5128 12.4787 66.0348 11.2787 67.0188 10.4387C68.0028 9.58671 69.3348 9.16071 71.0148 9.16071C72.0708 9.16071 73.0188 9.34071 73.8588 9.70071C74.6988 10.0487 75.3588 10.5527 75.8388 11.2127C76.3308 11.8607 76.5828 12.6227 76.5948 13.4987L76.5948 13.5347C76.5948 13.6307 76.5528 13.7147 76.4688 13.7867C76.3968 13.8467 76.3128 13.8767 76.2168 13.8767L73.7868 13.8767C73.6308 13.8767 73.5108 13.8467 73.4268 13.7867C73.3428 13.7147 73.2708 13.5887 73.2108 13.4087C73.0428 12.7967 72.7788 12.3707 72.4188 12.1307C72.0588 11.8787 71.5848 11.7527 70.9968 11.7527C69.5808 11.7527 68.8488 12.5447 68.8008 14.1287C68.7888 14.4527 68.7828 14.9507 68.7828 15.6227C68.7828 16.2947 68.7888 16.8047 68.8008 17.1527C68.8488 18.7367 69.5808 19.5287 70.9968 19.5287C71.5848 19.5287 72.0648 19.4027 72.4368 19.1507C72.8088 18.8867 73.0668 18.4607 73.2108 17.8727C73.2588 17.6927 73.3248 17.5727 73.4088 17.5127C73.4928 17.4407 73.6188 17.4047 73.7868 17.4047L76.2168 17.4047C76.3248 17.4047 76.4148 17.4407 76.4868 17.5127C76.5708 17.5847 76.6068 17.6747 76.5948 17.7827C76.5828 18.6587 76.3308 19.4267 75.8388 20.0867C75.3588 20.7347 74.6988 21.2387 73.8588 21.5987C73.0188 21.9467 72.0708 22.1207 71.0148 22.1207Z" fill="black"/>
<path d="M82.7175 22.1207C81.2295 22.1207 80.0835 21.7667 79.2795 21.0587C78.4755 20.3507 78.0375 19.3547 77.9655 18.0707C77.9535 17.9147 77.9475 17.6447 77.9475 17.2607C77.9475 16.8767 77.9535 16.6067 77.9655 16.4507C78.0375 15.1787 78.4875 14.1887 79.3155 13.4807C80.1435 12.7607 81.2775 12.4007 82.7175 12.4007C84.1695 12.4007 85.3095 12.7607 86.1375 13.4807C86.9655 14.1887 87.4155 15.1787 87.4875 16.4507C87.4995 16.6067 87.5055 16.8767 87.5055 17.2607C87.5055 17.6447 87.4995 17.9147 87.4875 18.0707C87.4155 19.3547 86.9775 20.3507 86.1735 21.0587C85.3695 21.7667 84.2175 22.1207 82.7175 22.1207ZM82.7175 19.9247C83.2455 19.9247 83.6355 19.7687 83.8875 19.4567C84.1395 19.1327 84.2835 18.6407 84.3195 17.9807C84.3315 17.8607 84.3375 17.6207 84.3375 17.2607C84.3375 16.9007 84.3315 16.6607 84.3195 16.5407C84.2835 15.8927 84.1335 15.4067 83.8695 15.0827C83.6175 14.7587 83.2335 14.5967 82.7175 14.5967C81.7215 14.5967 81.1935 15.2447 81.1335 16.5407L81.1155 17.2607L81.1335 17.9807C81.1575 18.6407 81.2955 19.1327 81.5475 19.4567C81.8115 19.7687 82.2015 19.9247 82.7175 19.9247Z" fill="black"/>
<path d="M89.7434 21.9408C89.6114 21.9408 89.5034 21.8988 89.4194 21.8148C89.3354 21.7308 89.2934 21.6227 89.2934 21.4907L89.2934 13.0308C89.2934 12.8988 89.3354 12.7907 89.4194 12.7067C89.5034 12.6227 89.6114 12.5807 89.7434 12.5807L91.8134 12.5807C91.9454 12.5807 92.0534 12.6288 92.1374 12.7248C92.2334 12.8088 92.2814 12.9108 92.2814 13.0308L92.2814 13.7507C92.9414 12.9707 93.8294 12.5807 94.9454 12.5807L95.7374 12.5807C95.8694 12.5807 95.9774 12.6227 96.061 12.7067C96.145 12.7907 96.187 12.8988 96.187 13.0308L96.187 14.8848C96.187 15.0048 96.145 15.1127 96.061 15.2087C95.9774 15.2927 95.8694 15.3347 95.7374 15.3347L93.9914 15.3347C93.4994 15.3347 93.1154 15.4727 92.8394 15.7487C92.5754 16.0127 92.4434 16.3907 92.4434 16.8827L92.4434 21.4907C92.4434 21.6227 92.3954 21.7308 92.2994 21.8148C92.2154 21.8988 92.1074 21.9408 91.9754 21.9408L89.7434 21.9408Z" fill="black"/>
<path d="M101.807 22.1207C100.319 22.1207 99.173 21.7667 98.369 21.0587C97.565 20.3507 97.127 19.3547 97.055 18.0707C97.043 17.9147 97.037 17.6447 97.037 17.2607C97.037 16.8767 97.043 16.6067 97.055 16.4507C97.127 15.1787 97.577 14.1887 98.405 13.4807C99.233 12.7607 100.367 12.4007 101.807 12.4007C103.259 12.4007 104.399 12.7607 105.227 13.4807C106.055 14.1887 106.505 15.1787 106.577 16.4507C106.589 16.6067 106.595 16.8767 106.595 17.2607C106.595 17.6447 106.589 17.9147 106.577 18.0707C106.505 19.3547 106.067 20.3507 105.263 21.0587C104.459 21.7667 103.307 22.1207 101.807 22.1207ZM101.807 19.9247C102.335 19.9247 102.725 19.7687 102.977 19.4567C103.229 19.1327 103.373 18.6407 103.409 17.9807C103.421 17.8607 103.427 17.6207 103.427 17.2607C103.427 16.9007 103.421 16.6607 103.409 16.5407C103.373 15.8927 103.223 15.4067 102.959 15.0827C102.707 14.7587 102.323 14.5967 101.807 14.5967C100.811 14.5967 100.283 15.2447 100.223 16.5407L100.205 17.2607L100.223 17.9807C100.247 18.6407 100.385 19.1327 100.637 19.4567C100.901 19.7687 101.291 19.9247 101.807 19.9247Z" fill="black"/>
<path d="M108.833 21.9407C108.701 21.9407 108.593 21.8987 108.509 21.8147C108.425 21.7307 108.383 21.6227 108.383 21.4907L108.383 13.0307C108.383 12.8987 108.425 12.7907 108.509 12.7067C108.593 12.6227 108.701 12.5807 108.833 12.5807L110.903 12.5807C111.035 12.5807 111.143 12.6227 111.227 12.7067C111.323 12.7907 111.371 12.8987 111.371 13.0307L111.371 13.7147C111.695 13.3187 112.109 13.0007 112.613 12.7607C113.129 12.5207 113.711 12.4007 114.359 12.4007C115.415 12.4007 116.273 12.7607 116.933 13.4807C117.593 14.1887 117.923 15.1847 117.923 16.4687L117.923 21.4907C117.923 21.6107 117.881 21.7187 117.797 21.8147C117.713 21.8987 117.605 21.9407 117.473 21.9407L115.205 21.9407C115.085 21.9407 114.977 21.8987 114.881 21.8147C114.797 21.7187 114.755 21.6107 114.755 21.4907L114.755 16.5767C114.755 16.0127 114.617 15.5807 114.341 15.2807C114.065 14.9687 113.669 14.8127 113.153 14.8127C112.649 14.8127 112.253 14.9687 111.965 15.2807C111.677 15.5807 111.533 16.0127 111.533 16.5767L111.533 21.4907C111.533 21.6107 111.491 21.7187 111.407 21.8147C111.323 21.8987 111.215 21.9407 111.083 21.9407L108.833 21.9407Z" fill="black"/>
<path d="M122.758 22.1207C122.122 22.1207 121.54 22.0007 121.012 21.7607C120.496 21.5087 120.088 21.1727 119.788 20.7527C119.5 20.3207 119.356 19.8467 119.356 19.3307C119.356 18.5027 119.692 17.8367 120.364 17.3327C121.048 16.8287 121.984 16.4807 123.172 16.2887L125.422 15.9467L125.422 15.6947C125.422 15.2387 125.326 14.9027 125.134 14.6867C124.942 14.4707 124.618 14.3627 124.162 14.3627C123.886 14.3627 123.658 14.4107 123.478 14.5067C123.298 14.6027 123.112 14.7347 122.92 14.9027C122.752 15.0467 122.626 15.1427 122.542 15.1907C122.506 15.2867 122.44 15.3347 122.344 15.3347L120.382 15.3347C120.262 15.3347 120.16 15.2987 120.076 15.2267C120.004 15.1427 119.974 15.0467 119.986 14.9387C119.998 14.6147 120.154 14.2547 120.454 13.8587C120.766 13.4627 121.234 13.1207 121.858 12.8327C122.494 12.5447 123.274 12.4007 124.198 12.4007C125.674 12.4007 126.766 12.7307 127.474 13.3907C128.182 14.0387 128.536 14.9147 128.536 16.0187L128.536 21.4907C128.536 21.6107 128.494 21.7187 128.41 21.8147C128.326 21.8987 128.218 21.9407 128.086 21.9407L125.998 21.9407C125.878 21.9407 125.77 21.8987 125.674 21.8147C125.59 21.7187 125.548 21.6107 125.548 21.4907L125.548 20.8607C125.284 21.2327 124.912 21.5387 124.432 21.7787C123.964 22.0067 123.406 22.1207 122.758 22.1207ZM123.604 20.0687C124.156 20.0687 124.6 19.8887 124.936 19.5287C125.284 19.1687 125.458 18.6407 125.458 17.9447L125.458 17.6927L123.928 17.9627C122.848 18.1547 122.308 18.5327 122.308 19.0967C122.308 19.3967 122.434 19.6367 122.686 19.8167C122.938 19.9847 123.244 20.0687 123.604 20.0687Z" fill="black"/>
<path d="M9.85069 0.967915C11.2754 0.468415 12.8412 1.14212 13.3473 2.47202C13.7346 3.49012 13.388 4.59692 12.5662 5.28452L13.0102 6.49551L13.7168 7.31081C13.878 7.49741 14.1227 7.58661 14.3679 7.55651C15.0289 7.47511 15.6858 7.47201 16.3291 7.53971C16.5472 7.56281 16.764 7.49081 16.9205 7.33871L17.4304 6.84531L17.8062 5.75111C17.4864 5.31221 17.3782 4.73092 17.5678 4.17862C17.8895 3.24232 18.9405 2.75842 19.8752 3.14182C20.6805 3.47172 21.1185 4.36731 20.8828 5.20081C20.733 5.73161 20.354 6.12922 19.8875 6.32602L19.4713 7.53872L19.5662 8.20681C19.5988 8.43651 19.7353 8.63712 19.9345 8.75742C20.6044 9.16402 21.2197 9.66092 21.7599 10.2355C21.9414 10.4288 22.2123 10.5117 22.4726 10.4593L23.8123 10.1903L25.3259 9.35091C25.3337 8.60661 25.7316 7.88711 26.4318 7.49871C27.4905 6.91181 28.8312 7.30621 29.3954 8.38161C29.9046 9.35171 29.5849 10.5712 28.6625 11.1684C27.9422 11.634 27.0634 11.6169 26.385 11.2194L24.8624 12.0633L24.0121 12.9663C23.7839 13.2086 23.7026 13.5513 23.7897 13.8721L23.7911 13.8771C23.94 14.43 24.0305 14.9855 24.0679 15.5363C24.0895 15.8643 24.2753 16.1595 24.5661 16.3163L25.6758 16.9145L27.8752 17.3293C28.2629 16.9916 28.797 16.8283 29.3428 16.9307C30.3214 17.1156 30.9513 18.084 30.7006 19.0589C30.485 19.8938 29.6624 20.4495 28.8022 20.3401C28.2156 20.2656 27.742 19.913 27.4876 19.439L25.2739 19.022L23.9085 19.1881C23.6568 19.2193 23.4371 19.3767 23.3344 19.6072C22.9259 20.5172 22.3622 21.354 21.6662 22.0765C21.4933 22.256 21.4284 22.513 21.4911 22.7536L21.8305 24.0636L22.6682 25.3735C23.5898 25.2356 24.5486 25.6328 25.0806 26.4649C25.7957 27.5826 25.4714 29.0627 24.3583 29.7839C23.2459 30.5049 21.7321 30.1911 21.003 29.0873C20.4925 28.3146 20.4869 27.3612 20.9007 26.6049L20.0114 25.2147L18.9179 24.3176C18.7559 24.184 18.5353 24.1487 18.3377 24.2189C18.1184 24.297 17.8947 24.3668 17.666 24.4277C16.4234 24.7589 15.1704 24.8016 13.9787 24.599C13.804 24.5698 13.6254 24.6194 13.4917 24.7349L12.9049 25.2434L12.4685 26.3152C12.7637 26.7715 12.8392 27.3575 12.6192 27.8982C12.2455 28.8159 11.169 29.2409 10.2574 28.8066C9.47239 28.4328 9.08459 27.5142 9.36639 26.6949C9.54579 26.1731 9.94569 25.797 10.4227 25.6266L10.9061 24.4386L10.8163 23.3953C9.94449 22.8509 9.16859 22.1523 8.53419 21.3266L7.04299 21.4734L5.64735 22.1615C5.65644 23.095 5.17465 23.9832 4.32901 24.413C3.13409 25.0199 1.66631 24.4826 1.051 23.2123C0.435871 21.9427 0.905041 20.4213 2.09995 19.8144C2.99416 19.3601 4.04056 19.5465 4.76862 20.2017L6.08489 19.5523L6.99829 18.5755C7.05799 18.5115 7.08009 18.4216 7.05749 18.3376L7.05709 18.3363C6.63499 16.7694 6.67809 15.1855 7.10159 13.7298C7.12429 13.65 7.10719 13.5638 7.05339 13.5003L6.26529 12.5618L4.56741 11.6734C4.09975 11.8786 3.54533 11.878 3.05776 11.6227C2.17694 11.1612 1.85955 10.054 2.38459 9.19492C2.84553 8.44162 3.8273 8.15561 4.62452 8.54181C5.14056 8.79171 5.47345 9.25891 5.57186 9.77581L7.26969 10.6641L8.47829 10.7775C8.56219 10.7856 8.64389 10.7503 8.69719 10.6853C9.24529 10.0104 9.89779 9.41461 10.6391 8.92591C10.8424 8.79111 10.9688 8.56792 10.9721 8.32462L10.9845 7.23101L10.5109 5.94061C9.48389 5.86681 8.55499 5.24692 8.18679 4.27982C7.68069 2.94992 8.42579 1.46681 9.85069 0.967915Z" fill="#EC5863"/>
<path d="M21.6196 14.4558C20.7028 11.053 17.1857 9.03345 13.764 9.94525C10.3424 10.857 8.31179 14.3548 9.22859 17.7577C10.1455 21.1605 13.6625 23.18 17.0842 22.2682C20.5059 21.3565 22.5365 17.8587 21.6196 14.4558Z" fill="#F58A97"/>
<path d="M16.5782 20.3901C13.4775 21.2164 10.2986 19.6357 9.04709 16.7996C9.08249 17.1183 9.14259 17.4384 9.22859 17.7577C10.1455 21.1606 13.6624 23.18 17.0842 22.2681C20.506 21.3563 22.5365 17.8587 21.6196 14.4557C21.5336 14.1365 21.4247 13.8294 21.2951 13.5358C21.6372 16.6142 19.6789 19.5639 16.5782 20.3901Z" fill="#F07281"/>
<path d="M6.95389 29.4752C6.69279 28.5061 5.69122 27.9311 4.71682 28.1907C3.74242 28.4504 3.16417 29.4464 3.42526 30.4155C3.68635 31.3845 4.68791 31.9596 5.66231 31.6999C6.63669 31.4403 7.21499 30.4442 6.95389 29.4752Z" fill="#EB5569"/>
<path d="M29.7404 23.9171C29.568 23.277 28.9064 22.8972 28.2628 23.0687C27.6192 23.2402 27.2373 23.8981 27.4097 24.5382C27.5822 25.1782 28.2437 25.5581 28.8873 25.3866C29.5309 25.2151 29.9129 24.5572 29.7404 23.9171Z" fill="#EB5569"/>
<path d="M26.4727 1.98143C26.2187 1.03863 25.2443 0.47913 24.2963 0.73173C23.3483 0.98433 22.7858 1.95343 23.0398 2.89623C23.2938 3.83893 24.2682 4.39843 25.2162 4.14583C26.1642 3.89323 26.7267 2.92413 26.4727 1.98143Z" fill="#EB5569"/>
<path d="M15.8253 18.0269C15.5885 17.1479 14.6801 16.6263 13.7963 16.8618C12.9125 17.0974 12.388 18.0008 12.6248 18.8798C12.8616 19.7587 13.77 20.2803 14.6538 20.0448C15.5376 19.8093 16.0621 18.9058 15.8253 18.0269Z" fill="#EB5569"/>
<path d="M19.9406 15.561C19.7794 14.9628 19.1611 14.6077 18.5595 14.768C17.958 14.9283 17.601 15.5433 17.7622 16.1415C17.9234 16.7398 18.5417 17.0948 19.1433 16.9345C19.7448 16.7742 20.1018 16.1593 19.9406 15.561Z" fill="#EB5569"/>
<path d="M15.5877 13.0753C15.4523 12.5729 14.9331 12.2748 14.4279 12.4094C13.9228 12.544 13.623 13.0604 13.7584 13.5628C13.8937 14.0651 14.4129 14.3633 14.9181 14.2287C15.4232 14.094 15.723 13.5777 15.5877 13.0753Z" fill="#EB5569"/>
</g>
<defs>
<clipPath id="clip0_26_583">
<rect width="129" height="32" fill="white"/>
</clipPath>
</defs>
</svg>
